<?xml version="1.0" encoding="UTF-8"?>
<!DOCTYPE svg PUBLIC "-//W3C//DTD SVG 1.1//EN" "http://www.w3.org/Graphics/SVG/1.1/DTD/svg11.dtd">
<!-- Creator: CorelDRAW X7 -->
<svg xmlns="http://www.w3.org/2000/svg" xml:space="preserve" width="132.986mm" height="113.65mm" version="1.1" style="shape-rendering:geometricPrecision; text-rendering:geometricPrecision; image-rendering:optimizeQuality; fill-rule:evenodd; clip-rule:evenodd"
viewBox="0 0 13143 11232"
 xmlns:xlink="http://www.w3.org/1999/xlink">
 <defs>
  <style type="text/css">
   <![CDATA[
    .fil1 {fill:#FEFEFE}
    .fil0 {fill:#282829;fill-rule:nonzero}
   ]]>
  </style>
 </defs>
 <g id="Camada_x0020_1">
  <metadata id="CorelCorpID_0Corel-Layer"/>
  <path class="fil0" d="M6290 3182c33,2 76,16 131,40 55,25 108,54 160,89 53,35 97,74 133,117 36,43 53,84 50,124 -6,100 -39,212 -97,336 -58,124 -121,253 -188,385 -49,96 -104,193 -166,293 -62,100 -119,200 -173,300 65,2 135,5 208,7 73,2 143,4 211,5 67,1 128,3 183,4 54,1 96,1 124,1 -107,75 -190,140 -248,197 -58,57 -109,108 -152,152 -43,44 -86,82 -129,113 -43,32 -101,58 -176,79l-334 0c-49,2 -97,2 -143,-2 -47,-3 -72,-14 -77,-33 -12,-33 -24,-62 -37,-89 -12,-27 -24,-52 -35,-77 -10,-24 -17,-48 -20,-73 -4,-24 -1,-50 8,-78 30,-110 72,-226 126,-351 53,-124 111,-250 172,-376 62,-127 124,-251 185,-373 62,-122 116,-235 162,-338 47,-104 82,-195 107,-274 24,-79 29,-138 15,-178z"/>
  <path id="1" class="fil0" d="M7650 4978c128,-147 240,-308 338,-485 98,-177 191,-381 279,-614 9,-28 19,-59 30,-94 10,-35 16,-69 17,-103 1,-33 -3,-62 -12,-87 -10,-24 -28,-40 -56,-47 -26,-5 -55,3 -89,23 -34,20 -67,45 -99,75 -33,30 -62,60 -87,90 -26,31 -45,53 -56,67 -33,41 -69,93 -110,155 -41,61 -75,118 -103,169 -9,16 -21,30 -37,40 -15,10 -51,11 -109,2 -54,97 -96,182 -126,252 -30,71 -58,149 -84,232 -25,77 -40,156 -45,237 -5,82 5,145 28,190 23,46 60,65 112,58 51,-7 120,-60 209,-160zm990 -1507c58,100 89,214 92,340 4,127 -10,255 -42,384 -31,129 -74,251 -130,366 -56,115 -113,211 -171,288 -116,146 -223,260 -319,341 -97,82 -185,141 -265,180 -80,38 -151,59 -213,61 -61,2 -113,-2 -155,-14 -63,-19 -121,-38 -176,-59 -55,-21 -105,-46 -150,-74 -45,-27 -88,-61 -127,-101 -40,-39 -76,-87 -108,-143 -42,-81 -65,-169 -70,-263 -5,-94 5,-195 28,-301 14,-56 35,-120 63,-192 28,-72 60,-146 96,-222 36,-75 73,-148 113,-219 39,-71 77,-135 111,-190 5,-10 13,-17 25,-23 11,-6 36,-5 73,2 42,-86 92,-166 150,-239 58,-73 123,-134 195,-181 72,-48 150,-82 234,-101 83,-20 169,-22 258,-6 97,19 186,57 267,114 80,57 154,141 221,252z"/>
  <path id="2" class="fil0" d="M9839 3011c42,-16 94,-6 155,32 62,37 120,86 176,146 56,60 103,124 141,192 39,67 57,124 54,171 -23,-40 -56,-61 -99,-65 -43,-3 -92,5 -146,26 -55,21 -112,51 -173,91 -60,39 -120,81 -178,125 -155,119 -253,214 -291,286 -38,72 -23,137 47,196 51,41 107,85 168,130 60,46 116,94 169,145 52,51 97,105 134,160 37,56 57,113 61,169 3,57 -14,116 -52,177 -39,60 -106,120 -201,181 -144,90 -281,157 -411,200 -130,43 -254,71 -370,82 -116,12 -224,11 -324,-1 -100,-13 -192,-29 -276,-48 -34,-16 -50,-43 -45,-81 5,-39 20,-77 45,-116 26,-38 60,-72 102,-102 41,-31 83,-48 125,-53 30,5 65,9 103,12 38,4 76,6 113,6 37,0 73,-1 107,-2 33,-1 62,-4 85,-9 181,-32 295,-83 342,-151 46,-69 8,-145 -115,-229 -45,-28 -97,-61 -159,-99 -62,-38 -120,-83 -174,-133 -55,-50 -100,-107 -136,-170 -36,-64 -50,-136 -42,-217 8,-80 45,-170 110,-270 65,-100 171,-211 317,-335 137,-118 256,-214 356,-287 100,-73 194,-126 282,-159z"/>
  <path id="3" class="fil0" d="M10327 3757c42,-16 77,-43 104,-80 28,-37 52,-79 72,-125 20,-47 37,-94 52,-142 15,-47 31,-90 47,-129 17,-38 35,-68 54,-90 20,-22 45,-30 75,-23 105,0 226,2 365,5 138,4 280,7 425,11 145,3 287,6 425,8 139,3 260,4 365,4 -65,39 -121,91 -168,155 -46,64 -90,126 -130,187 -41,60 -82,114 -124,160 -42,47 -89,71 -140,73 -41,0 -86,1 -132,2 -47,1 -93,1 -140,-2 -25,77 -59,158 -101,243 -42,84 -86,171 -132,259 -49,96 -100,197 -154,304 -53,107 -100,212 -141,315 -41,104 -72,203 -96,298 -23,96 -30,179 -21,251 -14,3 -37,-4 -71,-21 -34,-16 -70,-38 -110,-66 -39,-28 -80,-61 -120,-99 -41,-39 -75,-80 -103,-124 -28,-44 -47,-89 -56,-136 -9,-46 -3,-93 18,-139 25,-96 58,-192 99,-288 41,-97 84,-191 131,-284 46,-93 93,-183 141,-270 48,-88 91,-171 131,-250 -103,-2 -201,-4 -297,-5 -95,-1 -184,-2 -268,-2z"/>
  <path class="fil0" d="M4895 5902c35,3 84,21 146,56 24,-23 49,-31 77,-24 105,0 205,2 300,5 95,4 189,7 281,11 91,3 185,6 280,8 96,3 196,4 300,4 -65,39 -121,91 -167,155 -47,64 -90,126 -131,186 -41,61 -82,114 -124,161 -42,46 -88,71 -139,73 -82,0 -154,0 -216,0 -63,0 -122,-1 -178,-3 -16,46 -35,92 -56,139 -21,46 -44,95 -70,146 72,3 146,4 222,6 75,1 146,2 212,3 67,1 126,2 178,4 52,1 91,1 117,1 -107,75 -189,140 -248,197 -58,57 -108,108 -151,152 -43,44 -86,82 -129,113 -43,32 -102,58 -176,79l-328 0c-44,74 -88,149 -131,225 -43,75 -80,148 -111,218 -32,69 -56,136 -72,200 -16,64 -21,122 -14,173 -70,21 -133,26 -192,15 -58,-10 -107,-32 -148,-66 -40,-34 -69,-77 -87,-129 -17,-52 -20,-110 -9,-173 31,-109 72,-227 126,-353 53,-127 111,-255 172,-386 62,-130 123,-258 184,-383 60,-126 113,-242 160,-349 46,-107 82,-201 106,-282 25,-82 30,-142 16,-182z"/>
  <path id="1" class="fil0" d="M6577 7743c128,-146 240,-308 338,-484 98,-177 191,-381 279,-614 9,-28 19,-59 30,-94 10,-35 16,-69 17,-103 1,-34 -3,-63 -12,-87 -9,-24 -28,-40 -56,-47 -26,-5 -55,3 -89,23 -34,19 -67,44 -99,74 -33,31 -62,61 -87,91 -26,30 -45,52 -56,66 -33,42 -69,94 -110,156 -41,61 -75,118 -103,169 -9,16 -21,29 -36,40 -16,10 -52,11 -110,1 -54,98 -96,182 -126,253 -30,71 -58,148 -83,232 -26,77 -41,156 -46,237 -4,82 5,145 28,190 23,46 61,65 112,58 51,-7 121,-61 209,-161zm990 -1506c58,100 89,213 92,340 4,127 -10,255 -41,384 -32,129 -75,251 -131,366 -56,115 -113,211 -171,287 -116,147 -223,261 -319,342 -97,81 -185,141 -265,180 -80,38 -151,58 -213,61 -61,2 -113,-3 -155,-14 -63,-19 -121,-39 -176,-60 -55,-21 -105,-45 -150,-73 -45,-28 -88,-61 -127,-101 -40,-39 -76,-87 -108,-143 -42,-81 -65,-169 -70,-263 -5,-94 5,-195 28,-302 14,-55 35,-119 63,-191 28,-73 60,-146 96,-222 36,-75 73,-149 113,-220 39,-70 77,-134 111,-190 5,-9 13,-16 25,-22 12,-6 36,-5 73,2 42,-86 92,-166 150,-239 58,-74 123,-134 195,-182 72,-47 150,-81 234,-101 84,-19 170,-21 258,-5 98,19 186,56 267,113 80,57 154,142 221,253z"/>
  <path id="2" class="fil0" d="M9095 5997c33,2 77,12 133,31 56,19 109,46 159,82 50,36 91,82 123,139 33,57 43,125 32,204 -14,79 -31,154 -51,223 -20,70 -43,138 -70,204 -26,67 -56,134 -88,201 -33,67 -67,137 -102,209 -53,109 -116,220 -188,333 -72,113 -147,215 -225,307 -78,92 -156,166 -235,223 -79,57 -151,84 -216,82 -93,-2 -190,-20 -291,-52 -101,-33 -194,-79 -278,-140 -83,-60 -152,-135 -205,-223 -54,-88 -77,-191 -70,-307 5,-79 26,-178 63,-296 37,-119 88,-256 153,-412 14,-37 35,-84 63,-141 28,-57 58,-118 91,-185 32,-66 65,-133 99,-200 34,-67 64,-128 92,-183 28,-55 50,-101 67,-139 16,-39 23,-62 21,-68 18,13 56,34 115,61 58,26 114,63 169,111 54,48 97,108 127,180 30,72 28,159 -7,261 -33,61 -74,138 -124,234 -50,95 -100,195 -150,300 -50,104 -96,208 -137,310 -42,102 -72,191 -89,267 -18,75 -18,131 0,167 17,36 61,40 130,12 21,-9 45,-25 70,-49 26,-23 51,-51 75,-85 25,-34 49,-70 75,-108 26,-38 49,-76 70,-113 63,-107 126,-226 192,-356 65,-130 126,-260 183,-391 57,-130 105,-256 146,-378 41,-122 67,-227 78,-315z"/>
  <path id="3" class="fil0" d="M10439 6387c-16,279 -21,516 -14,711 7,196 21,359 42,492 44,-105 91,-213 141,-324 50,-112 100,-222 148,-332 49,-109 95,-215 136,-317 42,-102 78,-196 109,-282 30,-86 51,-162 64,-227 13,-65 13,-115 2,-150 32,3 76,16 130,40 55,25 109,54 161,89 52,35 96,74 132,117 36,43 53,84 51,124 -7,100 -40,212 -98,336 -58,125 -121,253 -188,386 -49,95 -98,194 -146,298 -49,103 -92,205 -128,306 -36,102 -63,198 -82,290 -18,92 -23,174 -14,246 -18,11 -51,19 -99,22 -48,4 -98,2 -152,-5 -32,2 -68,2 -106,0 -38,-2 -79,-8 -122,-17 -43,-10 -86,-23 -129,-40 -43,-18 -83,-43 -120,-75 -26,-21 -52,-65 -79,-131 -26,-66 -53,-151 -78,-253 -19,-70 -31,-150 -37,-242 -6,-92 -10,-189 -12,-291 -49,93 -95,187 -139,282 -45,95 -83,188 -115,279 -33,91 -57,177 -72,260 -15,82 -18,158 -9,228 -14,2 -37,2 -71,0 -34,-2 -72,-8 -113,-17 -42,-10 -85,-23 -128,-40 -43,-18 -80,-41 -111,-70 -32,-29 -55,-65 -70,-107 -15,-41 -16,-91 -2,-149 30,-110 71,-226 122,-351 51,-124 106,-249 164,-375 58,-125 116,-248 173,-369 57,-121 107,-233 150,-335 43,-102 75,-192 97,-270 22,-78 26,-137 12,-176 31,4 69,18 116,40 46,22 96,46 149,71 38,19 76,38 116,58 39,20 75,42 108,68 32,25 59,54 80,87 21,33 31,71 31,115z"/>
  <path id="4" class="fil0" d="M11772 8200c-46,12 -88,13 -125,4 -37,-10 -69,-24 -94,-42l-7 24c-7,19 -17,26 -28,21 -12,-5 -24,-14 -37,-30 -13,-15 -25,-32 -36,-52 -12,-20 -22,-36 -32,-50 -18,-31 -46,-58 -83,-82 -38,-25 -75,-49 -112,-72 -37,-23 -69,-47 -96,-73 -27,-26 -39,-56 -36,-91 34,-100 74,-208 120,-324 45,-116 90,-235 136,-356 45,-120 90,-240 134,-357 44,-117 83,-225 115,-324 33,-99 58,-186 75,-260 17,-74 25,-130 23,-167 21,2 46,10 75,24 29,14 60,31 94,51 34,19 67,42 101,68 34,25 66,51 96,76 65,-30 138,-59 218,-87 80,-28 160,-47 239,-59 79,-12 154,-12 224,-2 71,11 130,40 176,89 40,42 76,91 109,147 32,55 58,113 78,174 20,60 33,122 38,185 6,62 1,122 -15,177 -49,170 -119,322 -210,455 -90,134 -195,256 -315,367 -120,110 -250,211 -391,303 -140,92 -285,179 -434,263zm377 -1691l-495 1367c74,-40 150,-92 226,-157 77,-65 151,-137 222,-216 71,-79 138,-162 200,-250 63,-87 119,-172 169,-254 50,-83 92,-160 126,-232 34,-72 56,-132 68,-181 9,-37 10,-65 2,-84 -8,-18 -21,-31 -39,-36 -17,-6 -37,-8 -59,-6 -22,3 -44,5 -64,7 -54,7 -106,21 -156,42 -50,21 -98,44 -144,70l-56 -70z"/>
  <path class="fil0" d="M3454 0c190,78 360,148 510,209 151,61 304,131 460,209 156,78 323,181 501,309 179,128 390,298 635,510 179,156 262,343 251,560 -11,217 -56,465 -134,744 -111,390 -248,766 -409,1128 -162,362 -340,727 -535,1095 -195,367 -396,743 -602,1128 -206,384 -404,783 -593,1195 -312,702 -549,1265 -710,1688 -162,424 -279,766 -351,1028 -73,262 -112,463 -117,602 -6,139 -14,264 -26,376 -11,78 -13,156 -8,234 6,78 14,150 25,217l-33 0 -1805 -1454c-212,-167 -351,-345 -418,-535 -67,-189 -95,-379 -84,-568 11,-190 47,-376 109,-560 61,-184 125,-359 192,-527 312,-768 652,-1529 1020,-2281 367,-752 763,-1541 1186,-2365 134,-290 240,-521 318,-694 78,-173 139,-306 184,-401 44,-95 75,-164 92,-209 16,-45 30,-84 41,-117 101,-223 193,-468 276,-735 84,-268 92,-530 25,-786z"/>
  <polygon class="fil1" points="2637,6002 2599,6092 2554,6196 2537,6237 2327,6148 2427,5912 "/>
  <path class="fil1" d="M2174 6208l-308 723c-24,55 -26,118 -2,177 24,59 69,103 124,127 54,23 117,25 176,1 60,-23 103,-69 127,-123l308 -724 -325 -138 -308 723c-13,30 -14,63 -1,94 12,30 35,54 65,67 16,7 24,25 17,41 -4,9 -10,15 -17,18 -8,3 -17,3 -25,0 -46,-20 -81,-56 -100,-103 -18,-46 -18,-96 2,-142l308 -723 384 163 14 -32c8,-19 9,-41 1,-62 -9,-20 -25,-36 -44,-44l-276 -118c-19,-8 -41,-9 -62,0 -21,8 -36,24 -44,43l-14 32z"/>
  <path class="fil1" d="M3900 4634c-216,-535 -824,-794 -1359,-579 -535,215 -794,823 -579,1358 215,535 823,795 1358,580 535,-216 795,-824 580,-1359zm-627 -414c-443,-189 -957,17 -1146,461 -189,443 17,957 461,1146 444,190 957,-17 1146,-461 190,-443 -17,-957 -461,-1146z"/>
  <path class="fil1" d="M3176 4448c-94,-41 -193,-56 -289,-49 4,6 7,12 10,18 32,79 -24,175 -124,215 -99,40 -206,9 -237,-69 -3,-7 -5,-14 -7,-20 -73,61 -134,140 -174,235 -136,318 12,686 330,822 318,135 686,-13 822,-331 135,-318 -12,-686 -331,-821zm50 702c-70,163 -258,238 -421,169 -163,-70 -239,-258 -170,-421 70,-163 259,-239 422,-170 163,70 238,259 169,422z"/>
  <path class="fil1" d="M2951 4830c15,37 -11,82 -58,101 -47,19 -97,4 -112,-33 -14,-37 12,-82 58,-101 48,-19 98,-4 112,33z"/>
 </g>
</svg>
